<svg viewBox="0 0 30 30"><path fill="#c2e8ff" d="M21.437,21.973C23.385,20.174,24.5,17.638,24.5,15c0-5.238-4.262-9.5-9.5-9.5S5.5,9.762,5.5,15 c0,2.601,1.088,5.111,2.989,6.905l2.197,4.815C5.815,24.931,2.5,20.258,2.5,15C2.5,8.107,8.107,2.5,15,2.5S27.5,8.107,27.5,15 c0,5.313-3.361,10.002-8.298,11.76L21.437,21.973z"/><path fill="#7496c4" d="M15,3c6.617,0,12,5.383,12,12c0,4.67-2.705,8.838-6.799,10.803l1.649-3.531 C23.854,20.383,25,17.744,25,15c0-5.514-4.486-10-10-10S5,9.486,5,15c0,2.705,1.118,5.317,3.075,7.2l1.62,3.552 C5.662,23.763,3,19.617,3,15C3,8.383,8.383,3,15,3 M15,2C7.82,2,2,7.82,2,15c0,6.005,4.077,11.044,9.609,12.538l-2.706-5.931 C7.122,19.963,6,17.615,6,15c0-4.971,4.029-9,9-9c4.971,0,9,4.029,9,9c0,2.649-1.152,5.023-2.973,6.67l-2.753,5.897 C23.865,26.115,28,21.047,28,15C28,7.82,22.18,2,15,2L15,2z"/><path fill="#8bb7f0" d="M24.5 14.5H29.5V15.5H24.5z"/><path fill="#4e7ab5" d="M30 14L24 14 24 16 30 16 30 14z"/><path fill="#8bb7f0" d="M14.5 0.5H15.5V5.5H14.5z"/><path fill="#4e7ab5" d="M15,1v4V1 M16,0h-2v6h2V0L16,0z"/><g><path fill="#8bb7f0" d="M0.5 14.5H5.5V15.5H0.5z"/><path fill="#4e7ab5" d="M6 14L0 14 0 16 6 16 6 14z"/></g><g><path fill="#f78f8f" d="M9.932 17.838L15 19.527 20.055 17.842 14.936 28.807z"/><path fill="#c74343" d="M10.863,18.675l3.82,1.273L15,20.054l0.316-0.105l3.794-1.265l-4.169,8.93L10.863,18.675 M21,17 l-6,2l-6-2l5.931,13L21,17L21,17z"/></g></svg>