<?xml version="1.0" encoding="UTF-8"?>
<svg xmlns="http://www.w3.org/2000/svg" xmlns:xlink="http://www.w3.org/1999/xlink" width="50pt" height="50pt" viewBox="0 0 50 50" version="1.1">
<g id="surface1">
<path style=" stroke:none;fill-rule:nonzero;fill:#007bff;fill-opacity:1;" d="M 13.84375 4 C 13.550781 4.054688 13.300781 4.238281 13.15625 4.5 L 7.15625 14.5 C 7.0625 14.648438 7.007813 14.824219 7 15 L 7 41 C 7 43.746094 9.253906 46 12 46 L 16 46 C 18.746094 46 21 43.746094 21 41 L 21 15 C 20.992188 14.824219 20.9375 14.648438 20.84375 14.5 L 14.84375 4.5 C 14.644531 4.144531 14.246094 3.949219 13.84375 4 Z M 25 4 L 25 46 L 43 46 L 43 4 Z M 27 6 L 41 6 L 41 9 L 34 9 L 34 11 L 41 11 L 41 15 L 37 15 L 37 17 L 41 17 L 41 21 L 34 21 L 34 23 L 41 23 L 41 27 L 37 27 L 37 29 L 41 29 L 41 33 L 34 33 L 34 35 L 41 35 L 41 39 L 37 39 L 37 41 L 41 41 L 41 44 L 27 44 Z M 14 6.90625 L 15.25 9 L 12.75 9 Z M 11.53125 11 L 16.46875 11 L 18.25 14 L 9.75 14 Z M 9 16 L 11 16 L 11 38 L 9 38 Z M 13 16 L 15 16 L 15 38 L 13 38 Z M 17 16 L 19 16 L 19 38 L 17 38 Z M 9 40 L 19 40 L 19 41 C 19 42.65625 17.65625 44 16 44 L 12 44 C 10.34375 44 9 42.65625 9 41 Z "/>
</g>
</svg>
