<?xml version="1.0" encoding="UTF-8"?>
<svg xmlns="http://www.w3.org/2000/svg" xmlns:xlink="http://www.w3.org/1999/xlink" width="24pt" height="24pt" viewBox="0 0 24 24" version="1.1">
<g id="surface1">
<path style=" stroke:none;fill-rule:nonzero;fill:#007bff;fill-opacity:1;" d="M 3 3 L 3 21 L 11.683594 21 C 11.386719 20.378906 11.179688 19.707031 11.078125 19 L 5 19 L 5 7 L 19 7 L 19 11.078125 C 19.707031 11.179688 20.378906 11.386719 21 11.683594 L 21 3 Z M 7 10 L 7 12 L 9 12 L 9 10 Z M 11 10 L 11 12 L 17 12 L 17 10 Z M 18 13 C 15.199219 13 13 15.199219 13 18 C 13 20.800781 15.199219 23 18 23 C 19 23 20 22.699219 20.800781 22.199219 L 22.597656 24 L 24 22.597656 L 22.199219 20.800781 C 22.699219 20 23 19 23 18 C 23 15.199219 20.800781 13 18 13 Z M 7 14 L 7 16 L 9 16 L 9 14 Z M 18 15 C 19.699219 15 21 16.300781 21 18 C 21 19.699219 19.699219 21 18 21 C 16.300781 21 15 19.699219 15 18 C 15 16.300781 16.300781 15 18 15 Z "/>
</g>
</svg>
