<?xml version="1.0" encoding="UTF-8"?>
<svg xmlns="http://www.w3.org/2000/svg" xmlns:xlink="http://www.w3.org/1999/xlink" width="24pt" height="24pt" viewBox="0 0 24 24" version="1.1">
<g id="surface1">
<path style=" stroke:none;fill-rule:nonzero;fill:#007bff;fill-opacity:1;" d="M 5 3 C 3.894531 3 3 3.894531 3 5 L 3 19 C 3 20.101563 3.898438 21 5 21 L 11.683594 21 C 11.386719 20.378906 11.179688 19.707031 11.078125 19 L 5 19 L 5 7 L 19 7 L 19 11.078125 C 19.707031 11.179688 20.378906 11.386719 21 11.683594 L 21 5 C 21 3.894531 20.105469 3 19 3 Z M 8.773438 8 L 8.773438 9.125 C 8.507813 9.160156 8.265625 9.234375 8.050781 9.351563 C 7.835938 9.464844 7.648438 9.617188 7.496094 9.796875 C 7.34375 9.980469 7.222656 10.195313 7.140625 10.4375 C 7.054688 10.679688 7.011719 10.945313 7.011719 11.242188 C 7.011719 11.589844 7.058594 11.886719 7.15625 12.136719 C 7.25 12.378906 7.382813 12.601563 7.554688 12.785156 C 7.726563 12.972656 7.929688 13.136719 8.171875 13.28125 C 8.410156 13.421875 8.679688 13.558594 8.96875 13.6875 C 9.105469 13.761719 9.222656 13.839844 9.320313 13.914063 C 9.414063 13.992188 9.496094 14.074219 9.558594 14.164063 C 9.621094 14.253906 9.667969 14.351563 9.695313 14.46875 C 9.722656 14.578125 9.734375 14.707031 9.734375 14.847656 C 9.734375 14.980469 9.722656 15.101563 9.695313 15.210938 C 9.667969 15.320313 9.625 15.417969 9.570313 15.496094 C 9.511719 15.574219 9.441406 15.636719 9.355469 15.683594 C 9.269531 15.726563 9.167969 15.75 9.054688 15.75 C 8.949219 15.75 8.847656 15.730469 8.75 15.6875 C 8.65625 15.648438 8.570313 15.578125 8.496094 15.480469 C 8.421875 15.378906 8.363281 15.246094 8.320313 15.082031 C 8.277344 14.917969 8.257813 14.714844 8.257813 14.464844 L 6.765625 14.464844 C 6.765625 14.882813 6.820313 15.238281 6.921875 15.535156 C 7.027344 15.839844 7.171875 16.085938 7.347656 16.28125 C 7.523438 16.484375 7.726563 16.636719 7.953125 16.742188 C 8.179688 16.847656 8.417969 16.921875 8.664063 16.953125 L 8.664063 18 L 9.453125 18 L 9.453125 16.953125 C 9.71875 16.917969 9.960938 16.847656 10.183594 16.734375 C 10.402344 16.625 10.585938 16.480469 10.738281 16.300781 C 10.894531 16.121094 11.015625 15.910156 11.097656 15.667969 C 11.183594 15.421875 11.222656 15.144531 11.222656 14.839844 C 11.222656 14.5 11.179688 14.207031 11.085938 13.957031 C 10.992188 13.707031 10.859375 13.488281 10.6875 13.300781 C 10.515625 13.117188 10.308594 12.949219 10.074219 12.808594 C 9.835938 12.660156 9.570313 12.523438 9.28125 12.386719 C 9.140625 12.300781 9.019531 12.21875 8.921875 12.140625 C 8.820313 12.0625 8.738281 11.976563 8.679688 11.886719 C 8.617188 11.796875 8.570313 11.703125 8.542969 11.597656 C 8.515625 11.496094 8.5 11.378906 8.5 11.25 C 8.5 11.121094 8.511719 11 8.535156 10.890625 C 8.558594 10.78125 8.59375 10.679688 8.640625 10.597656 C 8.691406 10.519531 8.753906 10.453125 8.828125 10.40625 C 8.898438 10.359375 8.992188 10.335938 9.09375 10.335938 C 9.289063 10.335938 9.445313 10.4375 9.566406 10.644531 C 9.6875 10.851563 9.746094 11.164063 9.746094 11.585938 L 11.234375 11.585938 C 11.234375 11.242188 11.195313 10.929688 11.117188 10.652344 C 11.039063 10.371094 10.925781 10.128906 10.78125 9.921875 C 10.640625 9.714844 10.464844 9.546875 10.257813 9.414063 C 10.050781 9.285156 9.820313 9.195313 9.570313 9.148438 L 9.570313 8 Z M 18 13 C 15.199219 13 13 15.199219 13 18 C 13 20.800781 15.199219 23 18 23 C 19 23 20 22.699219 20.800781 22.199219 L 22.597656 24 L 24 22.597656 L 22.199219 20.800781 C 22.699219 20 23 19 23 18 C 23 15.199219 20.800781 13 18 13 Z M 18 15 C 19.699219 15 21 16.300781 21 18 C 21 19.699219 19.699219 21 18 21 C 16.300781 21 15 19.699219 15 18 C 15 16.300781 16.300781 15 18 15 Z "/>
</g>
</svg>
